# xmcd
#
# Track frame offsets:
#	180
#	22330
#	40332
#	58554
#	78392
#	106987
#	121983
#	140929
#	159149
#	179565
#	205092
#	228672
#	254855
#	279718
#	294911
#	311722
#
# Disc length: 4440 seconds
#
# Revision: 1
# Processed by: cddbd v1.5.2PL0 Copyright (c) Steve Scherf et al.
# Submitted via: audiograbber 1.83.01
#
DISCID=f5115610
DTITLE=Danzig - godless
DYEAR=1900
DGENRE=
TTITLE0=godless
TTITLE1=left hand
TTITLE2=snake of christ
TTITLE3=am i demon
TTITLE4=how the god kill
TTITLE5=mother
TTITLE6=dirty black summer
TTITLE7=sistinas
TTITLE8=her black wings
TTITLE9=pain in the world
TTITLE10=she rides
TTITLE11=do you wear
TTITLE12=777
TTITLE13=evil thing
TTITLE14=twist of cain
TTITLE15=long way back from hell
EXTD=
EXTT0=
EXTT1=
EXTT2=
EXTT3=
EXTT4=
EXTT5=
EXTT6=
EXTT7=
EXTT8=
EXTT9=
EXTT10=
EXTT11=
EXTT12=
EXTT13=
EXTT14=
EXTT15=
PLAYORDER=
